<svg width="32" height="32" viewBox="0 0 32 32" fill="none" xmlns="http://www.w3.org/2000/svg">
<g filter="url(#filter0_d_1_5)">
<path d="M15.625 0.375C9.20312 0.375 4 5.57812 4 12C4 18.4219 9.20312 23.625 15.625 23.625C22.0469 23.625 27.25 18.4219 27.25 12C27.25 5.57812 22.0469 0.375 15.625 0.375ZM10.375 11.25C10.375 10.8281 10.5625 10.4531 10.8438 10.1719L9.39062 9.75C9.01562 9.60938 8.78125 9.1875 8.875 8.8125C9.01562 8.39062 9.4375 8.20312 9.8125 8.29688L13.5625 9.42188C13.9844 9.5625 14.2188 9.98438 14.0781 10.3594C13.9844 10.6875 13.7031 10.875 13.375 10.875C13.3281 10.875 13.3281 10.875 13.2812 10.875C13.3281 11.0156 13.375 11.1562 13.375 11.25C13.375 12.0938 12.6719 12.75 11.875 12.75C11.0312 12.75 10.375 12.0938 10.375 11.25ZM18.25 18.5156C16.9375 16.9219 14.2656 16.9219 12.9531 18.5156C12.3438 19.2656 11.1719 18.2812 11.8281 17.5312C12.7656 16.4062 14.125 15.75 15.5781 15.75C17.0781 15.75 18.4375 16.4062 19.375 17.5312C20.0312 18.3281 18.8594 19.2656 18.25 18.5156ZM21.8125 9.75L20.3594 10.1719C20.6406 10.4531 20.875 10.8281 20.875 11.25C20.875 12.0938 20.1719 12.75 19.375 12.75C18.5312 12.75 17.875 12.0938 17.875 11.25C17.875 11.1562 17.9219 11.0156 17.9219 10.875H17.875C17.5469 10.875 17.2188 10.6875 17.125 10.3594C17.0312 9.98438 17.2656 9.5625 17.6406 9.42188L21.3906 8.29688C21.7656 8.20312 22.1875 8.39062 22.3281 8.8125C22.4219 9.1875 22.2344 9.60938 21.8125 9.75Z" fill="#EC0B0B"/>
<path d="M10.8438 10.1719L11.5509 10.879L12.7468 9.68307L11.1226 9.21153L10.8438 10.1719ZM9.39062 9.75L9.0395 10.6863L9.0752 10.6997L9.11181 10.7103L9.39062 9.75ZM8.875 8.8125L7.92632 8.49627L7.91417 8.53271L7.90486 8.56996L8.875 8.8125ZM9.8125 8.29688L10.0998 7.33905L10.0776 7.33237L10.055 7.32673L9.8125 8.29688ZM13.5625 9.42188L13.8787 8.47319L13.8644 8.4684L13.8498 8.46405L13.5625 9.42188ZM14.0781 10.3594L13.1418 10.0083L13.1277 10.0459L13.1166 10.0847L14.0781 10.3594ZM13.2812 10.875V9.875H11.8938L12.3326 11.1912L13.2812 10.875ZM18.25 18.5156L19.0261 17.885L19.0219 17.8799L18.25 18.5156ZM12.9531 18.5156L12.1812 17.8799L12.177 17.885L12.9531 18.5156ZM11.8281 17.5312L12.5807 18.1898L12.5886 18.1807L12.5963 18.1714L11.8281 17.5312ZM19.375 17.5312L20.1469 16.8955L20.1432 16.8911L19.375 17.5312ZM21.8125 9.75L22.0913 10.7103L22.1101 10.7049L22.1287 10.6987L21.8125 9.75ZM20.3594 10.1719L20.0806 9.21153L18.4564 9.68307L19.6523 10.879L20.3594 10.1719ZM17.9219 10.875H18.9219V9.875H17.9219V10.875ZM17.125 10.3594L16.1549 10.6019L16.1589 10.6181L16.1635 10.6341L17.125 10.3594ZM17.6406 9.42188L17.3533 8.46405L17.321 8.47372L17.2895 8.48555L17.6406 9.42188ZM21.3906 8.29688L21.1481 7.32673L21.1255 7.33237L21.1033 7.33905L21.3906 8.29688ZM22.3281 8.8125L23.2983 8.56996L23.289 8.53271L23.2768 8.49627L22.3281 8.8125ZM15.625 -0.625C8.65084 -0.625 3 5.02584 3 12H5C5 6.13041 9.75541 1.375 15.625 1.375V-0.625ZM3 12C3 18.9742 8.65084 24.625 15.625 24.625V22.625C9.75541 22.625 5 17.8696 5 12H3ZM15.625 24.625C22.5992 24.625 28.25 18.9742 28.25 12H26.25C26.25 17.8696 21.4946 22.625 15.625 22.625V24.625ZM28.25 12C28.25 5.02584 22.5992 -0.625 15.625 -0.625V1.375C21.4946 1.375 26.25 6.13041 26.25 12H28.25ZM11.375 11.25C11.375 11.1371 11.4238 11.0061 11.5509 10.879L10.1366 9.46477C9.70121 9.9002 9.375 10.5192 9.375 11.25H11.375ZM11.1226 9.21153L9.66944 8.78965L9.11181 10.7103L10.5649 11.1322L11.1226 9.21153ZM9.74175 8.81367C9.79651 8.83421 9.82137 8.86569 9.83261 8.88606C9.84364 8.90606 9.86771 8.96478 9.84514 9.05504L7.90486 8.56996C7.67897 9.47351 8.22345 10.3803 9.0395 10.6863L9.74175 8.81367ZM9.82368 9.12873C9.80936 9.17169 9.77027 9.2211 9.71528 9.24955C9.66845 9.27377 9.61804 9.27904 9.56996 9.26702L10.055 7.32673C9.2172 7.11727 8.24618 7.53669 7.92632 8.49627L9.82368 9.12873ZM9.52515 9.2547L13.2752 10.3797L13.8498 8.46405L10.0998 7.33905L9.52515 9.2547ZM13.2463 10.3706C13.2256 10.3637 13.1867 10.342 13.1557 10.2858C13.1228 10.2262 13.0994 10.1213 13.1418 10.0083L15.0145 10.7105C15.3928 9.70167 14.7277 8.75619 13.8787 8.47319L13.2463 10.3706ZM13.1166 10.0847C13.1307 10.0352 13.1688 9.97249 13.2332 9.9265C13.2935 9.88341 13.3482 9.875 13.375 9.875V11.875C14.1054 11.875 14.8115 11.4325 15.0396 10.6341L13.1166 10.0847ZM13.375 9.875C13.3749 9.875 13.3748 9.875 13.3747 9.875C13.3746 9.875 13.3745 9.875 13.3745 9.875C13.3744 9.875 13.3743 9.875 13.3742 9.875C13.3741 9.875 13.374 9.875 13.3739 9.875C13.3738 9.875 13.3737 9.875 13.3736 9.875C13.3736 9.875 13.3735 9.875 13.3734 9.875C13.3733 9.875 13.3732 9.875 13.3731 9.875C13.373 9.875 13.3729 9.875 13.3728 9.875C13.3727 9.875 13.3727 9.875 13.3726 9.875C13.3725 9.875 13.3724 9.875 13.3723 9.875C13.3722 9.875 13.3721 9.875 13.372 9.875C13.372 9.875 13.3719 9.875 13.3718 9.875C13.3717 9.875 13.3716 9.875 13.3715 9.875C13.3714 9.875 13.3713 9.875 13.3713 9.875C13.3712 9.875 13.3711 9.875 13.371 9.875C13.3709 9.875 13.3708 9.875 13.3707 9.875C13.3707 9.875 13.3706 9.875 13.3705 9.875C13.3704 9.875 13.3703 9.875 13.3702 9.875C13.3701 9.875 13.3701 9.875 13.37 9.875C13.3699 9.875 13.3698 9.875 13.3697 9.875C13.3696 9.875 13.3695 9.875 13.3695 9.875C13.3694 9.875 13.3693 9.875 13.3692 9.875C13.3691 9.875 13.369 9.875 13.369 9.875C13.3689 9.875 13.3688 9.875 13.3687 9.875C13.3686 9.875 13.3685 9.875 13.3685 9.875C13.3684 9.875 13.3683 9.875 13.3682 9.875C13.3681 9.875 13.368 9.875 13.368 9.875C13.3679 9.875 13.3678 9.875 13.3677 9.875C13.3676 9.875 13.3676 9.875 13.3675 9.875C13.3674 9.875 13.3673 9.875 13.3672 9.875C13.3671 9.875 13.3671 9.875 13.367 9.875C13.3669 9.875 13.3668 9.875 13.3667 9.875C13.3667 9.875 13.3666 9.875 13.3665 9.875C13.3664 9.875 13.3663 9.875 13.3663 9.875C13.3662 9.875 13.3661 9.875 13.366 9.875C13.3659 9.875 13.3659 9.875 13.3658 9.875C13.3657 9.875 13.3656 9.875 13.3655 9.875C13.3655 9.875 13.3654 9.875 13.3653 9.875C13.3652 9.875 13.3651 9.875 13.3651 9.875C13.365 9.875 13.3649 9.875 13.3648 9.875C13.3647 9.875 13.3647 9.875 13.3646 9.875C13.3645 9.875 13.3644 9.875 13.3644 9.875C13.3643 9.875 13.3642 9.875 13.3641 9.875C13.364 9.875 13.364 9.875 13.3639 9.875C13.3638 9.875 13.3637 9.875 13.3637 9.875C13.3636 9.875 13.3635 9.875 13.3634 9.875C13.3634 9.875 13.3633 9.875 13.3632 9.875C13.3631 9.875 13.3631 9.875 13.363 9.875C13.3629 9.875 13.3628 9.875 13.3627 9.875C13.3627 9.875 13.3626 9.875 13.3625 9.875C13.3624 9.875 13.3624 9.875 13.3623 9.875C13.3622 9.875 13.3621 9.875 13.3621 9.875C13.362 9.875 13.3619 9.875 13.3618 9.875C13.3618 9.875 13.3617 9.875 13.3616 9.875C13.3615 9.875 13.3615 9.875 13.3614 9.875C13.3613 9.875 13.3613 9.875 13.3612 9.875C13.3611 9.875 13.361 9.875 13.361 9.875C13.3609 9.875 13.3608 9.875 13.3607 9.875C13.3607 9.875 13.3606 9.875 13.3605 9.875C13.3604 9.875 13.3604 9.875 13.3603 9.875C13.3602 9.875 13.3602 9.875 13.3601 9.875C13.36 9.875 13.3599 9.875 13.3599 9.875C13.3598 9.875 13.3597 9.875 13.3597 9.875C13.3596 9.875 13.3595 9.875 13.3594 9.875C13.3594 9.875 13.3593 9.875 13.3592 9.875C13.3592 9.875 13.3591 9.875 13.359 9.875C13.3589 9.875 13.3589 9.875 13.3588 9.875C13.3587 9.875 13.3587 9.875 13.3586 9.875C13.3585 9.875 13.3584 9.875 13.3584 9.875C13.3583 9.875 13.3582 9.875 13.3582 9.875C13.3581 9.875 13.358 9.875 13.358 9.875C13.3579 9.875 13.3578 9.875 13.3577 9.875C13.3577 9.875 13.3576 9.875 13.3575 9.875C13.3575 9.875 13.3574 9.875 13.3573 9.875C13.3573 9.875 13.3572 9.875 13.3571 9.875C13.3571 9.875 13.357 9.875 13.3569 9.875C13.3568 9.875 13.3568 9.875 13.3567 9.875C13.3566 9.875 13.3566 9.875 13.3565 9.875C13.3564 9.875 13.3564 9.875 13.3563 9.875C13.3562 9.875 13.3562 9.875 13.3561 9.875C13.356 9.875 13.356 9.875 13.3559 9.875C13.3558 9.875 13.3558 9.875 13.3557 9.875C13.3556 9.875 13.3556 9.875 13.3555 9.875C13.3554 9.875 13.3554 9.875 13.3553 9.875C13.3552 9.875 13.3552 9.875 13.3551 9.875C13.355 9.875 13.355 9.875 13.3549 9.875C13.3548 9.875 13.3548 9.875 13.3547 9.875C13.3546 9.875 13.3546 9.875 13.3545 9.875C13.3544 9.875 13.3544 9.875 13.3543 9.875C13.3542 9.875 13.3542 9.875 13.3541 9.875C13.3541 9.875 13.354 9.875 13.3539 9.875C13.3539 9.875 13.3538 9.875 13.3537 9.875C13.3537 9.875 13.3536 9.875 13.3535 9.875C13.3535 9.875 13.3534 9.875 13.3533 9.875C13.3533 9.875 13.3532 9.875 13.3532 9.875C13.3531 9.875 13.353 9.875 13.353 9.875C13.3529 9.875 13.3528 9.875 13.3528 9.875C13.3527 9.875 13.3526 9.875 13.3526 9.875C13.3525 9.875 13.3525 9.875 13.3524 9.875C13.3523 9.875 13.3523 9.875 13.3522 9.875C13.3521 9.875 13.3521 9.875 13.352 9.875C13.3519 9.875 13.3519 9.875 13.3518 9.875C13.3518 9.875 13.3517 9.875 13.3516 9.875C13.3516 9.875 13.3515 9.875 13.3515 9.875C13.3514 9.875 13.3513 9.875 13.3513 9.875C13.3512 9.875 13.3511 9.875 13.3511 9.875C13.351 9.875 13.351 9.875 13.3509 9.875C13.3508 9.875 13.3508 9.875 13.3507 9.875C13.3507 9.875 13.3506 9.875 13.3505 9.875C13.3505 9.875 13.3504 9.875 13.3503 9.875C13.3503 9.875 13.3502 9.875 13.3502 9.875C13.3501 9.875 13.35 9.875 13.35 9.875C13.3499 9.875 13.3499 9.875 13.3498 9.875C13.3497 9.875 13.3497 9.875 13.3496 9.875C13.3496 9.875 13.3495 9.875 13.3494 9.875C13.3494 9.875 13.3493 9.875 13.3493 9.875C13.3492 9.875 13.3491 9.875 13.3491 9.875C13.349 9.875 13.349 9.875 13.3489 9.875C13.3489 9.875 13.3488 9.875 13.3487 9.875C13.3487 9.875 13.3486 9.875 13.3486 9.875C13.3485 9.875 13.3484 9.875 13.3484 9.875C13.3483 9.875 13.3483 9.875 13.3482 9.875C13.3481 9.875 13.3481 9.875 13.348 9.875C13.348 9.875 13.3479 9.875 13.3479 9.875C13.3478 9.875 13.3477 9.875 13.3477 9.875C13.3476 9.875 13.3476 9.875 13.3475 9.875C13.3475 9.875 13.3474 9.875 13.3473 9.875C13.3473 9.875 13.3472 9.875 13.3472 9.875C13.3471 9.875 13.3471 9.875 13.347 9.875C13.3469 9.875 13.3469 9.875 13.3468 9.875C13.3468 9.875 13.3467 9.875 13.3467 9.875C13.3466 9.875 13.3465 9.875 13.3465 9.875C13.3464 9.875 13.3464 9.875 13.3463 9.875C13.3463 9.875 13.3462 9.875 13.3461 9.875C13.3461 9.875 13.346 9.875 13.346 9.875C13.3459 9.875 13.3459 9.875 13.3458 9.875C13.3458 9.875 13.3457 9.875 13.3456 9.875C13.3456 9.875 13.3455 9.875 13.3455 9.875C13.3454 9.875 13.3454 9.875 13.3453 9.875C13.3453 9.875 13.3452 9.875 13.3451 9.875C13.3451 9.875 13.345 9.875 13.345 9.875C13.3449 9.875 13.3449 9.875 13.3448 9.875C13.3448 9.875 13.3447 9.875 13.3447 9.875C13.3446 9.875 13.3445 9.875 13.3445 9.875C13.3444 9.875 13.3444 9.875 13.3443 9.875C13.3443 9.875 13.3442 9.875 13.3442 9.875C13.3441 9.875 13.3441 9.875 13.344 9.875C13.3439 9.875 13.3439 9.875 13.3438 9.875C13.3438 9.875 13.3437 9.875 13.3437 9.875C13.3436 9.875 13.3436 9.875 13.3435 9.875C13.3435 9.875 13.3434 9.875 13.3434 9.875C13.3433 9.875 13.3432 9.875 13.3432 9.875C13.3431 9.875 13.3431 9.875 13.343 9.875C13.343 9.875 13.3429 9.875 13.3429 9.875C13.3428 9.875 13.3428 9.875 13.3427 9.875C13.3427 9.875 13.3426 9.875 13.3426 9.875C13.3425 9.875 13.3425 9.875 13.3424 9.875C13.3423 9.875 13.3423 9.875 13.3422 9.875C13.3422 9.875 13.3421 9.875 13.3421 9.875C13.342 9.875 13.342 9.875 13.3419 9.875C13.3419 9.875 13.3418 9.875 13.3418 9.875C13.3417 9.875 13.3417 9.875 13.3416 9.875C13.3416 9.875 13.3415 9.875 13.3415 9.875C13.3414 9.875 13.3414 9.875 13.3413 9.875C13.3413 9.875 13.3412 9.875 13.3411 9.875C13.3411 9.875 13.341 9.875 13.341 9.875C13.3409 9.875 13.3409 9.875 13.3408 9.875C13.3408 9.875 13.3407 9.875 13.3407 9.875C13.3406 9.875 13.3406 9.875 13.3405 9.875C13.3405 9.875 13.3404 9.875 13.3404 9.875C13.3403 9.875 13.3403 9.875 13.3402 9.875C13.3402 9.875 13.3401 9.875 13.3401 9.875C13.34 9.875 13.34 9.875 13.3399 9.875C13.3399 9.875 13.3398 9.875 13.3398 9.875C13.3397 9.875 13.3397 9.875 13.3396 9.875C13.3396 9.875 13.3395 9.875 13.3395 9.875C13.3394 9.875 13.3394 9.875 13.3393 9.875C13.3393 9.875 13.3392 9.875 13.3392 9.875C13.3391 9.875 13.3391 9.875 13.339 9.875C13.339 9.875 13.3389 9.875 13.3389 9.875C13.3388 9.875 13.3388 9.875 13.3387 9.875C13.3387 9.875 13.3386 9.875 13.3386 9.875C13.3385 9.875 13.3385 9.875 13.3384 9.875C13.3384 9.875 13.3383 9.875 13.3383 9.875C13.3382 9.875 13.3382 9.875 13.3381 9.875C13.3381 9.875 13.338 9.875 13.338 9.875C13.3379 9.875 13.3379 9.875 13.3378 9.875C13.3378 9.875 13.3377 9.875 13.3377 9.875C13.3376 9.875 13.3376 9.875 13.3375 9.875C13.3375 9.875 13.3374 9.875 13.3374 9.875C13.3373 9.875 13.3373 9.875 13.3372 9.875C13.3372 9.875 13.3371 9.875 13.3371 9.875C13.337 9.875 13.337 9.875 13.337 9.875C13.3369 9.875 13.3369 9.875 13.3368 9.875C13.3368 9.875 13.3367 9.875 13.3367 9.875C13.3366 9.875 13.3366 9.875 13.3365 9.875C13.3365 9.875 13.3364 9.875 13.3364 9.875C13.3363 9.875 13.3363 9.875 13.3362 9.875C13.3362 9.875 13.3361 9.875 13.3361 9.875C13.336 9.875 13.336 9.875 13.3359 9.875C13.3359 9.875 13.3358 9.875 13.3358 9.875C13.3357 9.875 13.3357 9.875 13.3357 9.875C13.3356 9.875 13.3356 9.875 13.3355 9.875C13.3355 9.875 13.3354 9.875 13.3354 9.875C13.3353 9.875 13.3353 9.875 13.3352 9.875C13.3352 9.875 13.3351 9.875 13.3351 9.875C13.335 9.875 13.335 9.875 13.3349 9.875C13.3349 9.875 13.3348 9.875 13.3348 9.875C13.3347 9.875 13.3347 9.875 13.3347 9.875C13.3346 9.875 13.3346 9.875 13.3345 9.875C13.3345 9.875 13.3344 9.875 13.3344 9.875C13.3343 9.875 13.3343 9.875 13.3342 9.875C13.3342 9.875 13.3341 9.875 13.3341 9.875C13.334 9.875 13.334 9.875 13.3339 9.875C13.3339 9.875 13.3339 9.875 13.3338 9.875C13.3338 9.875 13.3337 9.875 13.3337 9.875C13.3336 9.875 13.3336 9.875 13.3335 9.875C13.3335 9.875 13.3334 9.875 13.3334 9.875C13.3333 9.875 13.3333 9.875 13.3332 9.875C13.3332 9.875 13.3331 9.875 13.3331 9.875C13.3331 9.875 13.333 9.875 13.333 9.875C13.3329 9.875 13.3329 9.875 13.3328 9.875C13.3328 9.875 13.3327 9.875 13.3327 9.875C13.3326 9.875 13.3326 9.875 13.3325 9.875C13.3325 9.875 13.3324 9.875 13.3324 9.875C13.3324 9.875 13.3323 9.875 13.3323 9.875C13.3322 9.875 13.3322 9.875 13.3321 9.875C13.3321 9.875 13.332 9.875 13.332 9.875C13.3319 9.875 13.3319 9.875 13.3318 9.875C13.3318 9.875 13.3318 9.875 13.3317 9.875C13.3317 9.875 13.3316 9.875 13.3316 9.875C13.3315 9.875 13.3315 9.875 13.3314 9.875C13.3314 9.875 13.3313 9.875 13.3313 9.875C13.3312 9.875 13.3312 9.875 13.3312 9.875C13.3311 9.875 13.3311 9.875 13.331 9.875C13.331 9.875 13.3309 9.875 13.3309 9.875C13.3308 9.875 13.3308 9.875 13.3307 9.875C13.3307 9.875 13.3306 9.875 13.3306 9.875C13.3306 9.875 13.3305 9.875 13.3305 9.875C13.3304 9.875 13.3304 9.875 13.3303 9.875C13.3303 9.875 13.3302 9.875 13.3302 9.875C13.3301 9.875 13.3301 9.875 13.33 9.875C13.33 9.875 13.33 9.875 13.3299 9.875C13.3299 9.875 13.3298 9.875 13.3298 9.875C13.3297 9.875 13.3297 9.875 13.3296 9.875C13.3296 9.875 13.3295 9.875 13.3295 9.875C13.3295 9.875 13.3294 9.875 13.3294 9.875C13.3293 9.875 13.3293 9.875 13.3292 9.875C13.3292 9.875 13.3291 9.875 13.3291 9.875C13.329 9.875 13.329 9.875 13.3289 9.875C13.3289 9.875 13.3289 9.875 13.3288 9.875C13.3288 9.875 13.3287 9.875 13.3287 9.875C13.3286 9.875 13.3286 9.875 13.3285 9.875C13.3285 9.875 13.3284 9.875 13.3284 9.875C13.3284 9.875 13.3283 9.875 13.3283 9.875C13.3282 9.875 13.3282 9.875 13.3281 9.875C13.3281 9.875 13.328 9.875 13.328 9.875C13.3279 9.875 13.3279 9.875 13.3279 9.875C13.3278 9.875 13.3278 9.875 13.3277 9.875C13.3277 9.875 13.3276 9.875 13.3276 9.875C13.3275 9.875 13.3275 9.875 13.3274 9.875C13.3274 9.875 13.3273 9.875 13.3273 9.875C13.3273 9.875 13.3272 9.875 13.3272 9.875C13.3271 9.875 13.3271 9.875 13.327 9.875C13.327 9.875 13.3269 9.875 13.3269 9.875C13.3268 9.875 13.3268 9.875 13.3268 9.875C13.3267 9.875 13.3267 9.875 13.3266 9.875C13.3266 9.875 13.3265 9.875 13.3265 9.875C13.3264 9.875 13.3264 9.875 13.3263 9.875C13.3263 9.875 13.3262 9.875 13.3262 9.875C13.3262 9.875 13.3261 9.875 13.3261 9.875C13.326 9.875 13.326 9.875 13.3259 9.875C13.3259 9.875 13.3258 9.875 13.3258 9.875C13.3257 9.875 13.3257 9.875 13.3256 9.875C13.3256 9.875 13.3256 9.875 13.3255 9.875C13.3255 9.875 13.3254 9.875 13.3254 9.875C13.3253 9.875 13.3253 9.875 13.3252 9.875C13.3252 9.875 13.3251 9.875 13.3251 9.875C13.3251 9.875 13.325 9.875 13.325 9.875C13.3249 9.875 13.3249 9.875 13.3248 9.875C13.3248 9.875 13.3247 9.875 13.3247 9.875C13.3246 9.875 13.3246 9.875 13.3245 9.875C13.3245 9.875 13.3244 9.875 13.3244 9.875C13.3244 9.875 13.3243 9.875 13.3243 9.875C13.3242 9.875 13.3242 9.875 13.3241 9.875C13.3241 9.875 13.324 9.875 13.324 9.875C13.3239 9.875 13.3239 9.875 13.3238 9.875C13.3238 9.875 13.3238 9.875 13.3237 9.875C13.3237 9.875 13.3236 9.875 13.3236 9.875C13.3235 9.875 13.3235 9.875 13.3234 9.875C13.3234 9.875 13.3233 9.875 13.3233 9.875C13.3232 9.875 13.3232 9.875 13.3231 9.875C13.3231 9.875 13.3231 9.875 13.323 9.875C13.323 9.875 13.3229 9.875 13.3229 9.875C13.3228 9.875 13.3228 9.875 13.3227 9.875C13.3227 9.875 13.3226 9.875 13.3226 9.875C13.3225 9.875 13.3225 9.875 13.3224 9.875C13.3224 9.875 13.3224 9.875 13.3223 9.875C13.3223 9.875 13.3222 9.875 13.3222 9.875C13.3221 9.875 13.3221 9.875 13.322 9.875C13.322 9.875 13.3219 9.875 13.3219 9.875C13.3218 9.875 13.3218 9.875 13.3217 9.875C13.3217 9.875 13.3216 9.875 13.3216 9.875C13.3216 9.875 13.3215 9.875 13.3215 9.875C13.3214 9.875 13.3214 9.875 13.3213 9.875C13.3213 9.875 13.3212 9.875 13.3212 9.875C13.3211 9.875 13.3211 9.875 13.321 9.875C13.321 9.875 13.3209 9.875 13.3209 9.875C13.3208 9.875 13.3208 9.875 13.3207 9.875C13.3207 9.875 13.3206 9.875 13.3206 9.875C13.3206 9.875 13.3205 9.875 13.3205 9.875C13.3204 9.875 13.3204 9.875 13.3203 9.875C13.3203 9.875 13.3202 9.875 13.3202 9.875C13.3201 9.875 13.3201 9.875 13.32 9.875C13.32 9.875 13.3199 9.875 13.3199 9.875C13.3198 9.875 13.3198 9.875 13.3197 9.875C13.3197 9.875 13.3196 9.875 13.3196 9.875C13.3195 9.875 13.3195 9.875 13.3194 9.875C13.3194 9.875 13.3193 9.875 13.3193 9.875C13.3193 9.875 13.3192 9.875 13.3192 9.875C13.3191 9.875 13.3191 9.875 13.319 9.875C13.319 9.875 13.3189 9.875 13.3189 9.875C13.3188 9.875 13.3188 9.875 13.3187 9.875C13.3187 9.875 13.3186 9.875 13.3186 9.875C13.3185 9.875 13.3185 9.875 13.3184 9.875C13.3184 9.875 13.3183 9.875 13.3183 9.875C13.3182 9.875 13.3182 9.875 13.3181 9.875C13.3181 9.875 13.318 9.875 13.318 9.875C13.3179 9.875 13.3179 9.875 13.3178 9.875C13.3178 9.875 13.3177 9.875 13.3177 9.875C13.3176 9.875 13.3176 9.875 13.3175 9.875C13.3175 9.875 13.3174 9.875 13.3174 9.875C13.3173 9.875 13.3173 9.875 13.3172 9.875C13.3172 9.875 13.3171 9.875 13.3171 9.875C13.317 9.875 13.317 9.875 13.3169 9.875C13.3169 9.875 13.3168 9.875 13.3168 9.875C13.3167 9.875 13.3167 9.875 13.3166 9.875C13.3166 9.875 13.3165 9.875 13.3165 9.875C13.3164 9.875 13.3164 9.875 13.3163 9.875C13.3163 9.875 13.3162 9.875 13.3162 9.875C13.3161 9.875 13.3161 9.875 13.316 9.875C13.316 9.875 13.3159 9.875 13.3159 9.875C13.3158 9.875 13.3158 9.875 13.3157 9.875C13.3157 9.875 13.3156 9.875 13.3156 9.875C13.3155 9.875 13.3155 9.875 13.3154 9.875C13.3154 9.875 13.3153 9.875 13.3153 9.875C13.3152 9.875 13.3152 9.875 13.3151 9.875C13.3151 9.875 13.315 9.875 13.3149 9.875C13.3149 9.875 13.3148 9.875 13.3148 9.875C13.3147 9.875 13.3147 9.875 13.3146 9.875C13.3146 9.875 13.3145 9.875 13.3145 9.875C13.3144 9.875 13.3144 9.875 13.3143 9.875C13.3143 9.875 13.3142 9.875 13.3142 9.875C13.3141 9.875 13.3141 9.875 13.314 9.875C13.314 9.875 13.3139 9.875 13.3139 9.875C13.3138 9.875 13.3137 9.875 13.3137 9.875C13.3136 9.875 13.3136 9.875 13.3135 9.875C13.3135 9.875 13.3134 9.875 13.3134 9.875C13.3133 9.875 13.3133 9.875 13.3132 9.875C13.3132 9.875 13.3131 9.875 13.3131 9.875C13.313 9.875 13.313 9.875 13.3129 9.875C13.3128 9.875 13.3128 9.875 13.3127 9.875C13.3127 9.875 13.3126 9.875 13.3126 9.875C13.3125 9.875 13.3125 9.875 13.3124 9.875C13.3124 9.875 13.3123 9.875 13.3123 9.875C13.3122 9.875 13.3121 9.875 13.3121 9.875C13.312 9.875 13.312 9.875 13.3119 9.875C13.3119 9.875 13.3118 9.875 13.3118 9.875C13.3117 9.875 13.3117 9.875 13.3116 9.875C13.3115 9.875 13.3115 9.875 13.3114 9.875C13.3114 9.875 13.3113 9.875 13.3113 9.875C13.3112 9.875 13.3112 9.875 13.3111 9.875C13.311 9.875 13.311 9.875 13.3109 9.875C13.3109 9.875 13.3108 9.875 13.3108 9.875C13.3107 9.875 13.3107 9.875 13.3106 9.875C13.3105 9.875 13.3105 9.875 13.3104 9.875C13.3104 9.875 13.3103 9.875 13.3103 9.875C13.3102 9.875 13.3102 9.875 13.3101 9.875C13.31 9.875 13.31 9.875 13.3099 9.875C13.3099 9.875 13.3098 9.875 13.3098 9.875C13.3097 9.875 13.3097 9.875 13.3096 9.875C13.3095 9.875 13.3095 9.875 13.3094 9.875C13.3094 9.875 13.3093 9.875 13.3093 9.875C13.3092 9.875 13.3091 9.875 13.3091 9.875C13.309 9.875 13.309 9.875 13.3089 9.875C13.3089 9.875 13.3088 9.875 13.3087 9.875C13.3087 9.875 13.3086 9.875 13.3086 9.875C13.3085 9.875 13.3084 9.875 13.3084 9.875C13.3083 9.875 13.3083 9.875 13.3082 9.875C13.3082 9.875 13.3081 9.875 13.308 9.875C13.308 9.875 13.3079 9.875 13.3079 9.875C13.3078 9.875 13.3077 9.875 13.3077 9.875C13.3076 9.875 13.3076 9.875 13.3075 9.875C13.3075 9.875 13.3074 9.875 13.3073 9.875C13.3073 9.875 13.3072 9.875 13.3072 9.875C13.3071 9.875 13.307 9.875 13.307 9.875C13.3069 9.875 13.3069 9.875 13.3068 9.875C13.3067 9.875 13.3067 9.875 13.3066 9.875C13.3066 9.875 13.3065 9.875 13.3064 9.875C13.3064 9.875 13.3063 9.875 13.3063 9.875C13.3062 9.875 13.3061 9.875 13.3061 9.875C13.306 9.875 13.306 9.875 13.3059 9.875C13.3058 9.875 13.3058 9.875 13.3057 9.875C13.3057 9.875 13.3056 9.875 13.3055 9.875C13.3055 9.875 13.3054 9.875 13.3054 9.875C13.3053 9.875 13.3052 9.875 13.3052 9.875C13.3051 9.875 13.305 9.875 13.305 9.875C13.3049 9.875 13.3049 9.875 13.3048 9.875C13.3047 9.875 13.3047 9.875 13.3046 9.875C13.3046 9.875 13.3045 9.875 13.3044 9.875C13.3044 9.875 13.3043 9.875 13.3042 9.875C13.3042 9.875 13.3041 9.875 13.304 9.875C13.304 9.875 13.3039 9.875 13.3039 9.875C13.3038 9.875 13.3037 9.875 13.3037 9.875C13.3036 9.875 13.3035 9.875 13.3035 9.875C13.3034 9.875 13.3034 9.875 13.3033 9.875C13.3032 9.875 13.3032 9.875 13.3031 9.875C13.303 9.875 13.303 9.875 13.3029 9.875C13.3028 9.875 13.3028 9.875 13.3027 9.875C13.3027 9.875 13.3026 9.875 13.3025 9.875C13.3025 9.875 13.3024 9.875 13.3023 9.875C13.3023 9.875 13.3022 9.875 13.3021 9.875C13.3021 9.875 13.302 9.875 13.3019 9.875C13.3019 9.875 13.3018 9.875 13.3017 9.875C13.3017 9.875 13.3016 9.875 13.3015 9.875C13.3015 9.875 13.3014 9.875 13.3013 9.875C13.3013 9.875 13.3012 9.875 13.3011 9.875C13.3011 9.875 13.301 9.875 13.301 9.875C13.3009 9.875 13.3008 9.875 13.3008 9.875C13.3007 9.875 13.3006 9.875 13.3006 9.875C13.3005 9.875 13.3004 9.875 13.3003 9.875C13.3003 9.875 13.3002 9.875 13.3001 9.875C13.3001 9.875 13.3 9.875 13.2999 9.875C13.2999 9.875 13.2998 9.875 13.2997 9.875C13.2997 9.875 13.2996 9.875 13.2995 9.875C13.2995 9.875 13.2994 9.875 13.2993 9.875C13.2993 9.875 13.2992 9.875 13.2991 9.875C13.2991 9.875 13.299 9.875 13.2989 9.875C13.2989 9.875 13.2988 9.875 13.2987 9.875C13.2986 9.875 13.2986 9.875 13.2985 9.875C13.2984 9.875 13.2984 9.875 13.2983 9.875C13.2982 9.875 13.2982 9.875 13.2981 9.875C13.298 9.875 13.2979 9.875 13.2979 9.875C13.2978 9.875 13.2977 9.875 13.2977 9.875C13.2976 9.875 13.2975 9.875 13.2975 9.875C13.2974 9.875 13.2973 9.875 13.2972 9.875C13.2972 9.875 13.2971 9.875 13.297 9.875C13.297 9.875 13.2969 9.875 13.2968 9.875C13.2967 9.875 13.2967 9.875 13.2966 9.875C13.2965 9.875 13.2965 9.875 13.2964 9.875C13.2963 9.875 13.2962 9.875 13.2962 9.875C13.2961 9.875 13.296 9.875 13.2959 9.875C13.2959 9.875 13.2958 9.875 13.2957 9.875C13.2957 9.875 13.2956 9.875 13.2955 9.875C13.2954 9.875 13.2954 9.875 13.2953 9.875C13.2952 9.875 13.2951 9.875 13.2951 9.875C13.295 9.875 13.2949 9.875 13.2948 9.875C13.2948 9.875 13.2947 9.875 13.2946 9.875C13.2946 9.875 13.2945 9.875 13.2944 9.875C13.2943 9.875 13.2943 9.875 13.2942 9.875C13.2941 9.875 13.294 9.875 13.294 9.875C13.2939 9.875 13.2938 9.875 13.2937 9.875C13.2937 9.875 13.2936 9.875 13.2935 9.875C13.2934 9.875 13.2934 9.875 13.2933 9.875C13.2932 9.875 13.2931 9.875 13.293 9.875C13.293 9.875 13.2929 9.875 13.2928 9.875C13.2927 9.875 13.2927 9.875 13.2926 9.875C13.2925 9.875 13.2924 9.875 13.2924 9.875C13.2923 9.875 13.2922 9.875 13.2921 9.875C13.292 9.875 13.292 9.875 13.2919 9.875C13.2918 9.875 13.2917 9.875 13.2917 9.875C13.2916 9.875 13.2915 9.875 13.2914 9.875C13.2913 9.875 13.2913 9.875 13.2912 9.875C13.2911 9.875 13.291 9.875 13.291 9.875C13.2909 9.875 13.2908 9.875 13.2907 9.875C13.2906 9.875 13.2906 9.875 13.2905 9.875C13.2904 9.875 13.2903 9.875 13.2902 9.875C13.2902 9.875 13.2901 9.875 13.29 9.875C13.2899 9.875 13.2898 9.875 13.2898 9.875C13.2897 9.875 13.2896 9.875 13.2895 9.875C13.2894 9.875 13.2894 9.875 13.2893 9.875C13.2892 9.875 13.2891 9.875 13.289 9.875C13.2889 9.875 13.2889 9.875 13.2888 9.875C13.2887 9.875 13.2886 9.875 13.2885 9.875C13.2885 9.875 13.2884 9.875 13.2883 9.875C13.2882 9.875 13.2881 9.875 13.288 9.875C13.288 9.875 13.2879 9.875 13.2878 9.875C13.2877 9.875 13.2876 9.875 13.2875 9.875C13.2875 9.875 13.2874 9.875 13.2873 9.875C13.2872 9.875 13.2871 9.875 13.287 9.875C13.287 9.875 13.2869 9.875 13.2868 9.875C13.2867 9.875 13.2866 9.875 13.2865 9.875C13.2864 9.875 13.2864 9.875 13.2863 9.875C13.2862 9.875 13.2861 9.875 13.286 9.875C13.2859 9.875 13.2859 9.875 13.2858 9.875C13.2857 9.875 13.2856 9.875 13.2855 9.875C13.2854 9.875 13.2853 9.875 13.2853 9.875C13.2852 9.875 13.2851 9.875 13.285 9.875C13.2849 9.875 13.2848 9.875 13.2847 9.875C13.2846 9.875 13.2846 9.875 13.2845 9.875C13.2844 9.875 13.2843 9.875 13.2842 9.875C13.2841 9.875 13.284 9.875 13.2839 9.875C13.2839 9.875 13.2838 9.875 13.2837 9.875C13.2836 9.875 13.2835 9.875 13.2834 9.875C13.2833 9.875 13.2832 9.875 13.2831 9.875C13.2831 9.875 13.283 9.875 13.2829 9.875C13.2828 9.875 13.2827 9.875 13.2826 9.875C13.2825 9.875 13.2824 9.875 13.2823 9.875C13.2823 9.875 13.2822 9.875 13.2821 9.875C13.282 9.875 13.2819 9.875 13.2818 9.875C13.2817 9.875 13.2816 9.875 13.2815 9.875C13.2814 9.875 13.2813 9.875 13.2812 9.875V11.875C13.2813 11.875 13.2814 11.875 13.2815 11.875C13.2816 11.875 13.2817 11.875 13.2818 11.875C13.2819 11.875 13.282 11.875 13.2821 11.875C13.2822 11.875 13.2823 11.875 13.2823 11.875C13.2824 11.875 13.2825 11.875 13.2826 11.875C13.2827 11.875 13.2828 11.875 13.2829 11.875C13.283 11.875 13.2831 11.875 13.2831 11.875C13.2832 11.875 13.2833 11.875 13.2834 11.875C13.2835 11.875 13.2836 11.875 13.2837 11.875C13.2838 11.875 13.2839 11.875 13.2839 11.875C13.284 11.875 13.2841 11.875 13.2842 11.875C13.2843 11.875 13.2844 11.875 13.2845 11.875C13.2846 11.875 13.2846 11.875 13.2847 11.875C13.2848 11.875 13.2849 11.875 13.285 11.875C13.2851 11.875 13.2852 11.875 13.2853 11.875C13.2853 11.875 13.2854 11.875 13.2855 11.875C13.2856 11.875 13.2857 11.875 13.2858 11.875C13.2859 11.875 13.2859 11.875 13.286 11.875C13.2861 11.875 13.2862 11.875 13.2863 11.875C13.2864 11.875 13.2864 11.875 13.2865 11.875C13.2866 11.875 13.2867 11.875 13.2868 11.875C13.2869 11.875 13.287 11.875 13.287 11.875C13.2871 11.875 13.2872 11.875 13.2873 11.875C13.2874 11.875 13.2875 11.875 13.2875 11.875C13.2876 11.875 13.2877 11.875 13.2878 11.875C13.2879 11.875 13.288 11.875 13.288 11.875C13.2881 11.875 13.2882 11.875 13.2883 11.875C13.2884 11.875 13.2885 11.875 13.2885 11.875C13.2886 11.875 13.2887 11.875 13.2888 11.875C13.2889 11.875 13.2889 11.875 13.289 11.875C13.2891 11.875 13.2892 11.875 13.2893 11.875C13.2894 11.875 13.2894 11.875 13.2895 11.875C13.2896 11.875 13.2897 11.875 13.2898 11.875C13.2898 11.875 13.2899 11.875 13.29 11.875C13.2901 11.875 13.2902 11.875 13.2902 11.875C13.2903 11.875 13.2904 11.875 13.2905 11.875C13.2906 11.875 13.2906 11.875 13.2907 11.875C13.2908 11.875 13.2909 11.875 13.291 11.875C13.291 11.875 13.2911 11.875 13.2912 11.875C13.2913 11.875 13.2913 11.875 13.2914 11.875C13.2915 11.875 13.2916 11.875 13.2917 11.875C13.2917 11.875 13.2918 11.875 13.2919 11.875C13.292 11.875 13.292 11.875 13.2921 11.875C13.2922 11.875 13.2923 11.875 13.2924 11.875C13.2924 11.875 13.2925 11.875 13.2926 11.875C13.2927 11.875 13.2927 11.875 13.2928 11.875C13.2929 11.875 13.293 11.875 13.293 11.875C13.2931 11.875 13.2932 11.875 13.2933 11.875C13.2934 11.875 13.2934 11.875 13.2935 11.875C13.2936 11.875 13.2937 11.875 13.2937 11.875C13.2938 11.875 13.2939 11.875 13.294 11.875C13.294 11.875 13.2941 11.875 13.2942 11.875C13.2943 11.875 13.2943 11.875 13.2944 11.875C13.2945 11.875 13.2946 11.875 13.2946 11.875C13.2947 11.875 13.2948 11.875 13.2948 11.875C13.2949 11.875 13.295 11.875 13.2951 11.875C13.2951 11.875 13.2952 11.875 13.2953 11.875C13.2954 11.875 13.2954 11.875 13.2955 11.875C13.2956 11.875 13.2957 11.875 13.2957 11.875C13.2958 11.875 13.2959 11.875 13.2959 11.875C13.296 11.875 13.2961 11.875 13.2962 11.875C13.2962 11.875 13.2963 11.875 13.2964 11.875C13.2965 11.875 13.2965 11.875 13.2966 11.875C13.2967 11.875 13.2967 11.875 13.2968 11.875C13.2969 11.875 13.297 11.875 13.297 11.875C13.2971 11.875 13.2972 11.875 13.2972 11.875C13.2973 11.875 13.2974 11.875 13.2975 11.875C13.2975 11.875 13.2976 11.875 13.2977 11.875C13.2977 11.875 13.2978 11.875 13.2979 11.875C13.2979 11.875 13.298 11.875 13.2981 11.875C13.2982 11.875 13.2982 11.875 13.2983 11.875C13.2984 11.875 13.2984 11.875 13.2985 11.875C13.2986 11.875 13.2986 11.875 13.2987 11.875C13.2988 11.875 13.2989 11.875 13.2989 11.875C13.299 11.875 13.2991 11.875 13.2991 11.875C13.2992 11.875 13.2993 11.875 13.2993 11.875C13.2994 11.875 13.2995 11.875 13.2995 11.875C13.2996 11.875 13.2997 11.875 13.2997 11.875C13.2998 11.875 13.2999 11.875 13.2999 11.875C13.3 11.875 13.3001 11.875 13.3001 11.875C13.3002 11.875 13.3003 11.875 13.3003 11.875C13.3004 11.875 13.3005 11.875 13.3006 11.875C13.3006 11.875 13.3007 11.875 13.3008 11.875C13.3008 11.875 13.3009 11.875 13.301 11.875C13.301 11.875 13.3011 11.875 13.3011 11.875C13.3012 11.875 13.3013 11.875 13.3013 11.875C13.3014 11.875 13.3015 11.875 13.3015 11.875C13.3016 11.875 13.3017 11.875 13.3017 11.875C13.3018 11.875 13.3019 11.875 13.3019 11.875C13.302 11.875 13.3021 11.875 13.3021 11.875C13.3022 11.875 13.3023 11.875 13.3023 11.875C13.3024 11.875 13.3025 11.875 13.3025 11.875C13.3026 11.875 13.3027 11.875 13.3027 11.875C13.3028 11.875 13.3028 11.875 13.3029 11.875C13.303 11.875 13.303 11.875 13.3031 11.875C13.3032 11.875 13.3032 11.875 13.3033 11.875C13.3034 11.875 13.3034 11.875 13.3035 11.875C13.3035 11.875 13.3036 11.875 13.3037 11.875C13.3037 11.875 13.3038 11.875 13.3039 11.875C13.3039 11.875 13.304 11.875 13.304 11.875C13.3041 11.875 13.3042 11.875 13.3042 11.875C13.3043 11.875 13.3044 11.875 13.3044 11.875C13.3045 11.875 13.3046 11.875 13.3046 11.875C13.3047 11.875 13.3047 11.875 13.3048 11.875C13.3049 11.875 13.3049 11.875 13.305 11.875C13.305 11.875 13.3051 11.875 13.3052 11.875C13.3052 11.875 13.3053 11.875 13.3054 11.875C13.3054 11.875 13.3055 11.875 13.3055 11.875C13.3056 11.875 13.3057 11.875 13.3057 11.875C13.3058 11.875 13.3058 11.875 13.3059 11.875C13.306 11.875 13.306 11.875 13.3061 11.875C13.3061 11.875 13.3062 11.875 13.3063 11.875C13.3063 11.875 13.3064 11.875 13.3064 11.875C13.3065 11.875 13.3066 11.875 13.3066 11.875C13.3067 11.875 13.3067 11.875 13.3068 11.875C13.3069 11.875 13.3069 11.875 13.307 11.875C13.307 11.875 13.3071 11.875 13.3072 11.875C13.3072 11.875 13.3073 11.875 13.3073 11.875C13.3074 11.875 13.3075 11.875 13.3075 11.875C13.3076 11.875 13.3076 11.875 13.3077 11.875C13.3077 11.875 13.3078 11.875 13.3079 11.875C13.3079 11.875 13.308 11.875 13.308 11.875C13.3081 11.875 13.3082 11.875 13.3082 11.875C13.3083 11.875 13.3083 11.875 13.3084 11.875C13.3084 11.875 13.3085 11.875 13.3086 11.875C13.3086 11.875 13.3087 11.875 13.3087 11.875C13.3088 11.875 13.3089 11.875 13.3089 11.875C13.309 11.875 13.309 11.875 13.3091 11.875C13.3091 11.875 13.3092 11.875 13.3093 11.875C13.3093 11.875 13.3094 11.875 13.3094 11.875C13.3095 11.875 13.3095 11.875 13.3096 11.875C13.3097 11.875 13.3097 11.875 13.3098 11.875C13.3098 11.875 13.3099 11.875 13.3099 11.875C13.31 11.875 13.31 11.875 13.3101 11.875C13.3102 11.875 13.3102 11.875 13.3103 11.875C13.3103 11.875 13.3104 11.875 13.3104 11.875C13.3105 11.875 13.3105 11.875 13.3106 11.875C13.3107 11.875 13.3107 11.875 13.3108 11.875C13.3108 11.875 13.3109 11.875 13.3109 11.875C13.311 11.875 13.311 11.875 13.3111 11.875C13.3112 11.875 13.3112 11.875 13.3113 11.875C13.3113 11.875 13.3114 11.875 13.3114 11.875C13.3115 11.875 13.3115 11.875 13.3116 11.875C13.3117 11.875 13.3117 11.875 13.3118 11.875C13.3118 11.875 13.3119 11.875 13.3119 11.875C13.312 11.875 13.312 11.875 13.3121 11.875C13.3121 11.875 13.3122 11.875 13.3123 11.875C13.3123 11.875 13.3124 11.875 13.3124 11.875C13.3125 11.875 13.3125 11.875 13.3126 11.875C13.3126 11.875 13.3127 11.875 13.3127 11.875C13.3128 11.875 13.3128 11.875 13.3129 11.875C13.313 11.875 13.313 11.875 13.3131 11.875C13.3131 11.875 13.3132 11.875 13.3132 11.875C13.3133 11.875 13.3133 11.875 13.3134 11.875C13.3134 11.875 13.3135 11.875 13.3135 11.875C13.3136 11.875 13.3136 11.875 13.3137 11.875C13.3137 11.875 13.3138 11.875 13.3139 11.875C13.3139 11.875 13.314 11.875 13.314 11.875C13.3141 11.875 13.3141 11.875 13.3142 11.875C13.3142 11.875 13.3143 11.875 13.3143 11.875C13.3144 11.875 13.3144 11.875 13.3145 11.875C13.3145 11.875 13.3146 11.875 13.3146 11.875C13.3147 11.875 13.3147 11.875 13.3148 11.875C13.3148 11.875 13.3149 11.875 13.3149 11.875C13.315 11.875 13.3151 11.875 13.3151 11.875C13.3152 11.875 13.3152 11.875 13.3153 11.875C13.3153 11.875 13.3154 11.875 13.3154 11.875C13.3155 11.875 13.3155 11.875 13.3156 11.875C13.3156 11.875 13.3157 11.875 13.3157 11.875C13.3158 11.875 13.3158 11.875 13.3159 11.875C13.3159 11.875 13.316 11.875 13.316 11.875C13.3161 11.875 13.3161 11.875 13.3162 11.875C13.3162 11.875 13.3163 11.875 13.3163 11.875C13.3164 11.875 13.3164 11.875 13.3165 11.875C13.3165 11.875 13.3166 11.875 13.3166 11.875C13.3167 11.875 13.3167 11.875 13.3168 11.875C13.3168 11.875 13.3169 11.875 13.3169 11.875C13.317 11.875 13.317 11.875 13.3171 11.875C13.3171 11.875 13.3172 11.875 13.3172 11.875C13.3173 11.875 13.3173 11.875 13.3174 11.875C13.3174 11.875 13.3175 11.875 13.3175 11.875C13.3176 11.875 13.3176 11.875 13.3177 11.875C13.3177 11.875 13.3178 11.875 13.3178 11.875C13.3179 11.875 13.3179 11.875 13.318 11.875C13.318 11.875 13.3181 11.875 13.3181 11.875C13.3182 11.875 13.3182 11.875 13.3183 11.875C13.3183 11.875 13.3184 11.875 13.3184 11.875C13.3185 11.875 13.3185 11.875 13.3186 11.875C13.3186 11.875 13.3187 11.875 13.3187 11.875C13.3188 11.875 13.3188 11.875 13.3189 11.875C13.3189 11.875 13.319 11.875 13.319 11.875C13.3191 11.875 13.3191 11.875 13.3192 11.875C13.3192 11.875 13.3193 11.875 13.3193 11.875C13.3193 11.875 13.3194 11.875 13.3194 11.875C13.3195 11.875 13.3195 11.875 13.3196 11.875C13.3196 11.875 13.3197 11.875 13.3197 11.875C13.3198 11.875 13.3198 11.875 13.3199 11.875C13.3199 11.875 13.32 11.875 13.32 11.875C13.3201 11.875 13.3201 11.875 13.3202 11.875C13.3202 11.875 13.3203 11.875 13.3203 11.875C13.3204 11.875 13.3204 11.875 13.3205 11.875C13.3205 11.875 13.3206 11.875 13.3206 11.875C13.3206 11.875 13.3207 11.875 13.3207 11.875C13.3208 11.875 13.3208 11.875 13.3209 11.875C13.3209 11.875 13.321 11.875 13.321 11.875C13.3211 11.875 13.3211 11.875 13.3212 11.875C13.3212 11.875 13.3213 11.875 13.3213 11.875C13.3214 11.875 13.3214 11.875 13.3215 11.875C13.3215 11.875 13.3216 11.875 13.3216 11.875C13.3216 11.875 13.3217 11.875 13.3217 11.875C13.3218 11.875 13.3218 11.875 13.3219 11.875C13.3219 11.875 13.322 11.875 13.322 11.875C13.3221 11.875 13.3221 11.875 13.3222 11.875C13.3222 11.875 13.3223 11.875 13.3223 11.875C13.3224 11.875 13.3224 11.875 13.3224 11.875C13.3225 11.875 13.3225 11.875 13.3226 11.875C13.3226 11.875 13.3227 11.875 13.3227 11.875C13.3228 11.875 13.3228 11.875 13.3229 11.875C13.3229 11.875 13.323 11.875 13.323 11.875C13.3231 11.875 13.3231 11.875 13.3231 11.875C13.3232 11.875 13.3232 11.875 13.3233 11.875C13.3233 11.875 13.3234 11.875 13.3234 11.875C13.3235 11.875 13.3235 11.875 13.3236 11.875C13.3236 11.875 13.3237 11.875 13.3237 11.875C13.3238 11.875 13.3238 11.875 13.3238 11.875C13.3239 11.875 13.3239 11.875 13.324 11.875C13.324 11.875 13.3241 11.875 13.3241 11.875C13.3242 11.875 13.3242 11.875 13.3243 11.875C13.3243 11.875 13.3244 11.875 13.3244 11.875C13.3244 11.875 13.3245 11.875 13.3245 11.875C13.3246 11.875 13.3246 11.875 13.3247 11.875C13.3247 11.875 13.3248 11.875 13.3248 11.875C13.3249 11.875 13.3249 11.875 13.325 11.875C13.325 11.875 13.3251 11.875 13.3251 11.875C13.3251 11.875 13.3252 11.875 13.3252 11.875C13.3253 11.875 13.3253 11.875 13.3254 11.875C13.3254 11.875 13.3255 11.875 13.3255 11.875C13.3256 11.875 13.3256 11.875 13.3256 11.875C13.3257 11.875 13.3257 11.875 13.3258 11.875C13.3258 11.875 13.3259 11.875 13.3259 11.875C13.326 11.875 13.326 11.875 13.3261 11.875C13.3261 11.875 13.3262 11.875 13.3262 11.875C13.3262 11.875 13.3263 11.875 13.3263 11.875C13.3264 11.875 13.3264 11.875 13.3265 11.875C13.3265 11.875 13.3266 11.875 13.3266 11.875C13.3267 11.875 13.3267 11.875 13.3268 11.875C13.3268 11.875 13.3268 11.875 13.3269 11.875C13.3269 11.875 13.327 11.875 13.327 11.875C13.3271 11.875 13.3271 11.875 13.3272 11.875C13.3272 11.875 13.3273 11.875 13.3273 11.875C13.3273 11.875 13.3274 11.875 13.3274 11.875C13.3275 11.875 13.3275 11.875 13.3276 11.875C13.3276 11.875 13.3277 11.875 13.3277 11.875C13.3278 11.875 13.3278 11.875 13.3279 11.875C13.3279 11.875 13.3279 11.875 13.328 11.875C13.328 11.875 13.3281 11.875 13.3281 11.875C13.3282 11.875 13.3282 11.875 13.3283 11.875C13.3283 11.875 13.3284 11.875 13.3284 11.875C13.3284 11.875 13.3285 11.875 13.3285 11.875C13.3286 11.875 13.3286 11.875 13.3287 11.875C13.3287 11.875 13.3288 11.875 13.3288 11.875C13.3289 11.875 13.3289 11.875 13.3289 11.875C13.329 11.875 13.329 11.875 13.3291 11.875C13.3291 11.875 13.3292 11.875 13.3292 11.875C13.3293 11.875 13.3293 11.875 13.3294 11.875C13.3294 11.875 13.3295 11.875 13.3295 11.875C13.3295 11.875 13.3296 11.875 13.3296 11.875C13.3297 11.875 13.3297 11.875 13.3298 11.875C13.3298 11.875 13.3299 11.875 13.3299 11.875C13.33 11.875 13.33 11.875 13.33 11.875C13.3301 11.875 13.3301 11.875 13.3302 11.875C13.3302 11.875 13.3303 11.875 13.3303 11.875C13.3304 11.875 13.3304 11.875 13.3305 11.875C13.3305 11.875 13.3306 11.875 13.3306 11.875C13.3306 11.875 13.3307 11.875 13.3307 11.875C13.3308 11.875 13.3308 11.875 13.3309 11.875C13.3309 11.875 13.331 11.875 13.331 11.875C13.3311 11.875 13.3311 11.875 13.3312 11.875C13.3312 11.875 13.3312 11.875 13.3313 11.875C13.3313 11.875 13.3314 11.875 13.3314 11.875C13.3315 11.875 13.3315 11.875 13.3316 11.875C13.3316 11.875 13.3317 11.875 13.3317 11.875C13.3318 11.875 13.3318 11.875 13.3318 11.875C13.3319 11.875 13.3319 11.875 13.332 11.875C13.332 11.875 13.3321 11.875 13.3321 11.875C13.3322 11.875 13.3322 11.875 13.3323 11.875C13.3323 11.875 13.3324 11.875 13.3324 11.875C13.3324 11.875 13.3325 11.875 13.3325 11.875C13.3326 11.875 13.3326 11.875 13.3327 11.875C13.3327 11.875 13.3328 11.875 13.3328 11.875C13.3329 11.875 13.3329 11.875 13.333 11.875C13.333 11.875 13.3331 11.875 13.3331 11.875C13.3331 11.875 13.3332 11.875 13.3332 11.875C13.3333 11.875 13.3333 11.875 13.3334 11.875C13.3334 11.875 13.3335 11.875 13.3335 11.875C13.3336 11.875 13.3336 11.875 13.3337 11.875C13.3337 11.875 13.3338 11.875 13.3338 11.875C13.3339 11.875 13.3339 11.875 13.3339 11.875C13.334 11.875 13.334 11.875 13.3341 11.875C13.3341 11.875 13.3342 11.875 13.3342 11.875C13.3343 11.875 13.3343 11.875 13.3344 11.875C13.3344 11.875 13.3345 11.875 13.3345 11.875C13.3346 11.875 13.3346 11.875 13.3347 11.875C13.3347 11.875 13.3347 11.875 13.3348 11.875C13.3348 11.875 13.3349 11.875 13.3349 11.875C13.335 11.875 13.335 11.875 13.3351 11.875C13.3351 11.875 13.3352 11.875 13.3352 11.875C13.3353 11.875 13.3353 11.875 13.3354 11.875C13.3354 11.875 13.3355 11.875 13.3355 11.875C13.3356 11.875 13.3356 11.875 13.3357 11.875C13.3357 11.875 13.3357 11.875 13.3358 11.875C13.3358 11.875 13.3359 11.875 13.3359 11.875C13.336 11.875 13.336 11.875 13.3361 11.875C13.3361 11.875 13.3362 11.875 13.3362 11.875C13.3363 11.875 13.3363 11.875 13.3364 11.875C13.3364 11.875 13.3365 11.875 13.3365 11.875C13.3366 11.875 13.3366 11.875 13.3367 11.875C13.3367 11.875 13.3368 11.875 13.3368 11.875C13.3369 11.875 13.3369 11.875 13.337 11.875C13.337 11.875 13.337 11.875 13.3371 11.875C13.3371 11.875 13.3372 11.875 13.3372 11.875C13.3373 11.875 13.3373 11.875 13.3374 11.875C13.3374 11.875 13.3375 11.875 13.3375 11.875C13.3376 11.875 13.3376 11.875 13.3377 11.875C13.3377 11.875 13.3378 11.875 13.3378 11.875C13.3379 11.875 13.3379 11.875 13.338 11.875C13.338 11.875 13.3381 11.875 13.3381 11.875C13.3382 11.875 13.3382 11.875 13.3383 11.875C13.3383 11.875 13.3384 11.875 13.3384 11.875C13.3385 11.875 13.3385 11.875 13.3386 11.875C13.3386 11.875 13.3387 11.875 13.3387 11.875C13.3388 11.875 13.3388 11.875 13.3389 11.875C13.3389 11.875 13.339 11.875 13.339 11.875C13.3391 11.875 13.3391 11.875 13.3392 11.875C13.3392 11.875 13.3393 11.875 13.3393 11.875C13.3394 11.875 13.3394 11.875 13.3395 11.875C13.3395 11.875 13.3396 11.875 13.3396 11.875C13.3397 11.875 13.3397 11.875 13.3398 11.875C13.3398 11.875 13.3399 11.875 13.3399 11.875C13.34 11.875 13.34 11.875 13.3401 11.875C13.3401 11.875 13.3402 11.875 13.3402 11.875C13.3403 11.875 13.3403 11.875 13.3404 11.875C13.3404 11.875 13.3405 11.875 13.3405 11.875C13.3406 11.875 13.3406 11.875 13.3407 11.875C13.3407 11.875 13.3408 11.875 13.3408 11.875C13.3409 11.875 13.3409 11.875 13.341 11.875C13.341 11.875 13.3411 11.875 13.3411 11.875C13.3412 11.875 13.3413 11.875 13.3413 11.875C13.3414 11.875 13.3414 11.875 13.3415 11.875C13.3415 11.875 13.3416 11.875 13.3416 11.875C13.3417 11.875 13.3417 11.875 13.3418 11.875C13.3418 11.875 13.3419 11.875 13.3419 11.875C13.342 11.875 13.342 11.875 13.3421 11.875C13.3421 11.875 13.3422 11.875 13.3422 11.875C13.3423 11.875 13.3423 11.875 13.3424 11.875C13.3425 11.875 13.3425 11.875 13.3426 11.875C13.3426 11.875 13.3427 11.875 13.3427 11.875C13.3428 11.875 13.3428 11.875 13.3429 11.875C13.3429 11.875 13.343 11.875 13.343 11.875C13.3431 11.875 13.3431 11.875 13.3432 11.875C13.3432 11.875 13.3433 11.875 13.3434 11.875C13.3434 11.875 13.3435 11.875 13.3435 11.875C13.3436 11.875 13.3436 11.875 13.3437 11.875C13.3437 11.875 13.3438 11.875 13.3438 11.875C13.3439 11.875 13.3439 11.875 13.344 11.875C13.3441 11.875 13.3441 11.875 13.3442 11.875C13.3442 11.875 13.3443 11.875 13.3443 11.875C13.3444 11.875 13.3444 11.875 13.3445 11.875C13.3445 11.875 13.3446 11.875 13.3447 11.875C13.3447 11.875 13.3448 11.875 13.3448 11.875C13.3449 11.875 13.3449 11.875 13.345 11.875C13.345 11.875 13.3451 11.875 13.3451 11.875C13.3452 11.875 13.3453 11.875 13.3453 11.875C13.3454 11.875 13.3454 11.875 13.3455 11.875C13.3455 11.875 13.3456 11.875 13.3456 11.875C13.3457 11.875 13.3458 11.875 13.3458 11.875C13.3459 11.875 13.3459 11.875 13.346 11.875C13.346 11.875 13.3461 11.875 13.3461 11.875C13.3462 11.875 13.3463 11.875 13.3463 11.875C13.3464 11.875 13.3464 11.875 13.3465 11.875C13.3465 11.875 13.3466 11.875 13.3467 11.875C13.3467 11.875 13.3468 11.875 13.3468 11.875C13.3469 11.875 13.3469 11.875 13.347 11.875C13.3471 11.875 13.3471 11.875 13.3472 11.875C13.3472 11.875 13.3473 11.875 13.3473 11.875C13.3474 11.875 13.3475 11.875 13.3475 11.875C13.3476 11.875 13.3476 11.875 13.3477 11.875C13.3477 11.875 13.3478 11.875 13.3479 11.875C13.3479 11.875 13.348 11.875 13.348 11.875C13.3481 11.875 13.3481 11.875 13.3482 11.875C13.3483 11.875 13.3483 11.875 13.3484 11.875C13.3484 11.875 13.3485 11.875 13.3486 11.875C13.3486 11.875 13.3487 11.875 13.3487 11.875C13.3488 11.875 13.3489 11.875 13.3489 11.875C13.349 11.875 13.349 11.875 13.3491 11.875C13.3491 11.875 13.3492 11.875 13.3493 11.875C13.3493 11.875 13.3494 11.875 13.3494 11.875C13.3495 11.875 13.3496 11.875 13.3496 11.875C13.3497 11.875 13.3497 11.875 13.3498 11.875C13.3499 11.875 13.3499 11.875 13.35 11.875C13.35 11.875 13.3501 11.875 13.3502 11.875C13.3502 11.875 13.3503 11.875 13.3503 11.875C13.3504 11.875 13.3505 11.875 13.3505 11.875C13.3506 11.875 13.3507 11.875 13.3507 11.875C13.3508 11.875 13.3508 11.875 13.3509 11.875C13.351 11.875 13.351 11.875 13.3511 11.875C13.3511 11.875 13.3512 11.875 13.3513 11.875C13.3513 11.875 13.3514 11.875 13.3515 11.875C13.3515 11.875 13.3516 11.875 13.3516 11.875C13.3517 11.875 13.3518 11.875 13.3518 11.875C13.3519 11.875 13.3519 11.875 13.352 11.875C13.3521 11.875 13.3521 11.875 13.3522 11.875C13.3523 11.875 13.3523 11.875 13.3524 11.875C13.3525 11.875 13.3525 11.875 13.3526 11.875C13.3526 11.875 13.3527 11.875 13.3528 11.875C13.3528 11.875 13.3529 11.875 13.353 11.875C13.353 11.875 13.3531 11.875 13.3532 11.875C13.3532 11.875 13.3533 11.875 13.3533 11.875C13.3534 11.875 13.3535 11.875 13.3535 11.875C13.3536 11.875 13.3537 11.875 13.3537 11.875C13.3538 11.875 13.3539 11.875 13.3539 11.875C13.354 11.875 13.3541 11.875 13.3541 11.875C13.3542 11.875 13.3542 11.875 13.3543 11.875C13.3544 11.875 13.3544 11.875 13.3545 11.875C13.3546 11.875 13.3546 11.875 13.3547 11.875C13.3548 11.875 13.3548 11.875 13.3549 11.875C13.355 11.875 13.355 11.875 13.3551 11.875C13.3552 11.875 13.3552 11.875 13.3553 11.875C13.3554 11.875 13.3554 11.875 13.3555 11.875C13.3556 11.875 13.3556 11.875 13.3557 11.875C13.3558 11.875 13.3558 11.875 13.3559 11.875C13.356 11.875 13.356 11.875 13.3561 11.875C13.3562 11.875 13.3562 11.875 13.3563 11.875C13.3564 11.875 13.3564 11.875 13.3565 11.875C13.3566 11.875 13.3566 11.875 13.3567 11.875C13.3568 11.875 13.3568 11.875 13.3569 11.875C13.357 11.875 13.3571 11.875 13.3571 11.875C13.3572 11.875 13.3573 11.875 13.3573 11.875C13.3574 11.875 13.3575 11.875 13.3575 11.875C13.3576 11.875 13.3577 11.875 13.3577 11.875C13.3578 11.875 13.3579 11.875 13.358 11.875C13.358 11.875 13.3581 11.875 13.3582 11.875C13.3582 11.875 13.3583 11.875 13.3584 11.875C13.3584 11.875 13.3585 11.875 13.3586 11.875C13.3587 11.875 13.3587 11.875 13.3588 11.875C13.3589 11.875 13.3589 11.875 13.359 11.875C13.3591 11.875 13.3592 11.875 13.3592 11.875C13.3593 11.875 13.3594 11.875 13.3594 11.875C13.3595 11.875 13.3596 11.875 13.3597 11.875C13.3597 11.875 13.3598 11.875 13.3599 11.875C13.3599 11.875 13.36 11.875 13.3601 11.875C13.3602 11.875 13.3602 11.875 13.3603 11.875C13.3604 11.875 13.3604 11.875 13.3605 11.875C13.3606 11.875 13.3607 11.875 13.3607 11.875C13.3608 11.875 13.3609 11.875 13.361 11.875C13.361 11.875 13.3611 11.875 13.3612 11.875C13.3613 11.875 13.3613 11.875 13.3614 11.875C13.3615 11.875 13.3615 11.875 13.3616 11.875C13.3617 11.875 13.3618 11.875 13.3618 11.875C13.3619 11.875 13.362 11.875 13.3621 11.875C13.3621 11.875 13.3622 11.875 13.3623 11.875C13.3624 11.875 13.3624 11.875 13.3625 11.875C13.3626 11.875 13.3627 11.875 13.3627 11.875C13.3628 11.875 13.3629 11.875 13.363 11.875C13.3631 11.875 13.3631 11.875 13.3632 11.875C13.3633 11.875 13.3634 11.875 13.3634 11.875C13.3635 11.875 13.3636 11.875 13.3637 11.875C13.3637 11.875 13.3638 11.875 13.3639 11.875C13.364 11.875 13.364 11.875 13.3641 11.875C13.3642 11.875 13.3643 11.875 13.3644 11.875C13.3644 11.875 13.3645 11.875 13.3646 11.875C13.3647 11.875 13.3647 11.875 13.3648 11.875C13.3649 11.875 13.365 11.875 13.3651 11.875C13.3651 11.875 13.3652 11.875 13.3653 11.875C13.3654 11.875 13.3655 11.875 13.3655 11.875C13.3656 11.875 13.3657 11.875 13.3658 11.875C13.3659 11.875 13.3659 11.875 13.366 11.875C13.3661 11.875 13.3662 11.875 13.3663 11.875C13.3663 11.875 13.3664 11.875 13.3665 11.875C13.3666 11.875 13.3667 11.875 13.3667 11.875C13.3668 11.875 13.3669 11.875 13.367 11.875C13.3671 11.875 13.3671 11.875 13.3672 11.875C13.3673 11.875 13.3674 11.875 13.3675 11.875C13.3676 11.875 13.3676 11.875 13.3677 11.875C13.3678 11.875 13.3679 11.875 13.368 11.875C13.368 11.875 13.3681 11.875 13.3682 11.875C13.3683 11.875 13.3684 11.875 13.3685 11.875C13.3685 11.875 13.3686 11.875 13.3687 11.875C13.3688 11.875 13.3689 11.875 13.369 11.875C13.369 11.875 13.3691 11.875 13.3692 11.875C13.3693 11.875 13.3694 11.875 13.3695 11.875C13.3695 11.875 13.3696 11.875 13.3697 11.875C13.3698 11.875 13.3699 11.875 13.37 11.875C13.3701 11.875 13.3701 11.875 13.3702 11.875C13.3703 11.875 13.3704 11.875 13.3705 11.875C13.3706 11.875 13.3707 11.875 13.3707 11.875C13.3708 11.875 13.3709 11.875 13.371 11.875C13.3711 11.875 13.3712 11.875 13.3713 11.875C13.3713 11.875 13.3714 11.875 13.3715 11.875C13.3716 11.875 13.3717 11.875 13.3718 11.875C13.3719 11.875 13.372 11.875 13.372 11.875C13.3721 11.875 13.3722 11.875 13.3723 11.875C13.3724 11.875 13.3725 11.875 13.3726 11.875C13.3727 11.875 13.3727 11.875 13.3728 11.875C13.3729 11.875 13.373 11.875 13.3731 11.875C13.3732 11.875 13.3733 11.875 13.3734 11.875C13.3735 11.875 13.3736 11.875 13.3736 11.875C13.3737 11.875 13.3738 11.875 13.3739 11.875C13.374 11.875 13.3741 11.875 13.3742 11.875C13.3743 11.875 13.3744 11.875 13.3745 11.875C13.3745 11.875 13.3746 11.875 13.3747 11.875C13.3748 11.875 13.3749 11.875 13.375 11.875V9.875ZM12.3326 11.1912C12.3447 11.2275 12.3543 11.2565 12.363 11.2838C12.3716 11.3108 12.3773 11.3297 12.3809 11.3432C12.3848 11.3574 12.3844 11.3578 12.3827 11.3483C12.3817 11.343 12.3799 11.3322 12.3784 11.3171C12.3768 11.3021 12.375 11.2792 12.375 11.25H14.375C14.375 11.0644 14.3331 10.8999 14.3105 10.817C14.2842 10.7206 14.2512 10.6227 14.2299 10.5588L12.3326 11.1912ZM12.375 11.25C12.375 11.5213 12.14 11.75 11.875 11.75V13.75C13.2038 13.75 14.375 12.6662 14.375 11.25H12.375ZM11.875 11.75C11.5835 11.75 11.375 11.5415 11.375 11.25H9.375C9.375 12.646 10.479 13.75 11.875 13.75V11.75ZM19.0219 17.8799C17.3094 15.8004 13.8937 15.8004 12.1812 17.8799L13.7251 19.1513C14.6375 18.0433 16.5656 18.0433 17.4781 19.1513L19.0219 17.8799ZM12.177 17.885C12.1856 17.8744 12.2134 17.8455 12.265 17.8204C12.3162 17.7954 12.3708 17.7841 12.4201 17.7837C12.5107 17.783 12.555 17.8166 12.5668 17.8267C12.5791 17.8372 12.6182 17.8758 12.6309 17.9628C12.6378 18.0097 12.6347 18.0616 12.6198 18.1106C12.6049 18.1597 12.5844 18.1856 12.5807 18.1898L11.0755 16.8727C10.7269 17.2712 10.5808 17.764 10.6518 18.2511C10.7187 18.7102 10.9658 19.0885 11.2652 19.3452C11.5641 19.6014 11.9747 19.7873 12.4359 19.7837C12.927 19.7798 13.3935 19.5594 13.7292 19.1462L12.177 17.885ZM12.5963 18.1714C13.3506 17.2663 14.4322 16.75 15.5781 16.75V14.75C13.8178 14.75 12.1807 15.5462 11.0599 16.8911L12.5963 18.1714ZM15.5781 16.75C16.7761 16.75 17.8559 17.2704 18.6068 18.1714L20.1432 16.8911C19.0191 15.5421 17.3801 14.75 15.5781 14.75V16.75ZM18.6031 18.167C18.6071 18.1718 18.5925 18.1552 18.5808 18.1155C18.569 18.0755 18.5655 18.0295 18.572 17.9842C18.5844 17.8981 18.6249 17.8537 18.6454 17.8366C18.6648 17.8203 18.7142 17.7882 18.8028 17.7907C18.8503 17.792 18.9012 17.8038 18.9478 17.8271C18.9946 17.8505 19.0192 17.8766 19.0261 17.885L17.4739 19.1462C17.8044 19.5531 18.2621 19.7765 18.7475 19.7899C19.2067 19.8026 19.6223 19.6269 19.9288 19.3705C20.2364 19.1131 20.485 18.7318 20.5516 18.2692C20.6215 17.7835 20.4773 17.2967 20.1469 16.8955L18.6031 18.167ZM21.5337 8.78965L20.0806 9.21153L20.6382 11.1322L22.0913 10.7103L21.5337 8.78965ZM19.6523 10.879C19.7369 10.9636 19.7975 11.046 19.834 11.1168C19.8693 11.1852 19.875 11.2279 19.875 11.25H21.875C21.875 10.4544 21.4412 9.83953 21.0665 9.46477L19.6523 10.879ZM19.875 11.25C19.875 11.5213 19.64 11.75 19.375 11.75V13.75C20.7038 13.75 21.875 12.6662 21.875 11.25H19.875ZM19.375 11.75C19.0835 11.75 18.875 11.5415 18.875 11.25H16.875C16.875 12.646 17.979 13.75 19.375 13.75V11.75ZM18.875 11.25C18.875 11.302 18.8691 11.334 18.8707 11.3237C18.8724 11.3128 18.8742 11.3037 18.8823 11.259C18.8941 11.1943 18.9219 11.0447 18.9219 10.875H16.9219C16.9219 10.8459 16.9262 10.837 16.9146 10.9012C16.911 10.9209 16.9011 10.9733 16.894 11.0196C16.8867 11.0664 16.875 11.1512 16.875 11.25H18.875ZM17.9219 9.875H17.875V11.875H17.9219V9.875ZM17.875 9.875C17.8951 9.875 17.9227 9.87933 17.9584 9.90262C18 9.92976 18.0594 9.98973 18.0865 10.0847L16.1635 10.6341C16.4098 11.4962 17.2196 11.875 17.875 11.875V9.875ZM18.0951 10.1168C18.1177 10.2071 18.0936 10.2658 18.0826 10.2858C18.0714 10.3062 18.0465 10.3377 17.9917 10.3582L17.2895 8.48555C16.4735 8.79156 15.929 9.69837 16.1549 10.6019L18.0951 10.1168ZM17.928 10.3797L21.678 9.2547L21.1033 7.33905L17.3533 8.46405L17.928 10.3797ZM21.6332 9.26702C21.5851 9.27904 21.5347 9.27377 21.4878 9.24955C21.4328 9.2211 21.3938 9.17169 21.3794 9.12873L23.2768 8.49627C22.9569 7.53669 21.9859 7.11727 21.1481 7.32673L21.6332 9.26702ZM21.358 9.05504C21.346 9.00696 21.3512 8.95655 21.3755 8.90972C21.4039 8.85473 21.4533 8.81564 21.4963 8.80132L22.1287 10.6987C23.0883 10.3788 23.5077 9.4078 23.2983 8.56996L21.358 9.05504Z" fill="black"/>
</g>
<defs>
<filter id="filter0_d_1_5" x="0" y="0.375" width="31.25" height="31.25" filterUnits="userSpaceOnUse" color-interpolation-filters="sRGB">
<feFlood flood-opacity="0" result="BackgroundImageFix"/>
<feColorMatrix in="SourceAlpha" type="matrix" values="0 0 0 0 0 0 0 0 0 0 0 0 0 0 0 0 0 0 127 0" result="hardAlpha"/>
<feOffset dy="4"/>
<feGaussianBlur stdDeviation="2"/>
<feComposite in2="hardAlpha" operator="out"/>
<feColorMatrix type="matrix" values="0 0 0 0 0 0 0 0 0 0 0 0 0 0 0 0 0 0 0.25 0"/>
<feBlend mode="normal" in2="BackgroundImageFix" result="effect1_dropShadow_1_5"/>
<feBlend mode="normal" in="SourceGraphic" in2="effect1_dropShadow_1_5" result="shape"/>
</filter>
</defs>
</svg>
